<svg width="34" height="30" viewBox="0 0 34 30" fill="none" xmlns="http://www.w3.org/2000/svg">
<path d="M19.4286 0C11.3819 0 4.85714 6.71667 4.85714 15H0L6.2981 21.4833L6.41143 21.7167L12.9524 15H8.09524C8.09524 8.55 13.1629 3.33333 19.4286 3.33333C25.6943 3.33333 30.7619 8.55 30.7619 15C30.7619 21.45 25.6943 26.6667 19.4286 26.6667C16.3038 26.6667 13.4705 25.35 11.4305 23.2333L9.13143 25.6C11.7705 28.3167 15.3971 30 19.4286 30C27.4752 30 34 23.2833 34 15C34 6.71667 27.4752 0 19.4286 0ZM17.8095 8.33333V16.6667L24.739 20.9L25.9048 18.8833L20.2381 15.4167V8.33333H17.8095Z" fill="white"/>
</svg>
